<?xml version="1.0" encoding="utf-8"?>
<!-- Generator: Adobe Illustrator 18.1.1, SVG Export Plug-In . SVG Version: 6.00 Build 0)  -->
<!DOCTYPE svg PUBLIC "-//W3C//DTD SVG 1.1//EN" "http://www.w3.org/Graphics/SVG/1.1/DTD/svg11.dtd">
<svg version="1.1" id="_x31_0" xmlns="http://www.w3.org/2000/svg" xmlns:xlink="http://www.w3.org/1999/xlink" x="0px" y="0px"
	 viewBox="0 0 512 512" style="enable-background:new 0 0 512 512;" xml:space="preserve">
<style type="text/css">
	.st0{fill:#FFFFFF;}
</style>
<g>
	<path class="st0" d="M212.041,51.338c-3.539,0-7.031,0.531-10.375,1.57c-2.168,0.676-4.278,1.566-6.274,2.649
		c-2.953,1.61-5.656,3.629-8.042,6.008c-2.379,2.382-4.402,5.09-6.008,8.038c-2.762,5.082-4.222,10.84-4.222,16.653v26.019
		l-0.07,10.618l-0.157,7.269L59.595,12.862c-13.617-13.61-35.769-13.61-49.382,0c-13.617,13.617-13.617,35.773,0,49.382
		l68.879,68.879l28.414,28.519l19.898,20.129H83.607c-3.539,0-7.027,0.531-10.379,1.57c-2.164,0.676-4.273,1.566-6.269,2.648
		c-2.954,1.61-5.664,3.63-8.043,6.012c-2.379,2.383-4.402,5.086-6.008,8.043c-2.762,5.074-4.222,10.832-4.218,16.644
		c0,4.715,0.922,9.286,2.746,13.594c0.875,2.07,1.961,4.066,3.223,5.937c2.519,3.727,5.687,6.898,9.418,9.422
		c5.782,3.902,12.531,5.969,19.531,5.969h128.762c9.238,0,17.926-3.602,24.457-10.133c6.535-6.531,10.133-15.219,10.133-24.458
		V86.256C246.958,67.006,231.298,51.342,212.041,51.338z"/>
	<path class="st0" d="M501.79,449.756l-69.203-69.203l-28.313-28.414l-19.679-19.91h43.804c3.535,0,7.028-0.531,10.375-1.57
		c2.164-0.676,4.274-1.566,6.27-2.648c2.957-1.602,5.66-3.626,8.043-6.008c2.382-2.383,4.402-5.086,6.008-8.039
		c2.762-5.082,4.218-10.84,4.218-16.652c0-4.715-0.926-9.282-2.75-13.594c-0.87-2.07-1.953-4.066-3.214-5.937
		c-2.523-3.727-5.695-6.898-9.422-9.418c-5.782-3.902-12.535-5.965-19.528-5.965H299.634c-9.238,0-17.926,3.598-24.457,10.129
		c-6.535,6.531-10.133,15.215-10.133,24.457v128.762c0,19.258,15.664,34.918,34.918,34.918c3.539,0,7.031-0.524,10.375-1.57
		c2.164-0.676,4.277-1.562,6.273-2.649c2.954-1.602,5.661-3.625,8.043-6.008c2.379-2.378,4.402-5.09,6.008-8.038
		c2.762-5.078,4.222-10.836,4.218-16.653l0.004-25.89l0.07-10.778l0.156-7.238l117.301,117.3c13.61,13.61,35.766,13.61,49.379,0
		C515.403,485.521,515.403,463.372,501.79,449.756z"/>
</g>
</svg>
